<?xml version="1.0" encoding="utf-8"?><!-- Uploaded to: SVG Repo, www.svgrepo.com, Generator: SVG Repo Mixer Tools -->
<svg fill="#000000" width="800px" height="800px" viewBox="0 0 24 24" id="taka-square" data-name="Flat Color" xmlns="http://www.w3.org/2000/svg" class="icon flat-color"><rect id="primary" x="2" y="2" width="20" height="20" rx="2" style="fill: rgb(0, 0, 0);"></rect><path id="secondary" d="M16.48,12.12a1,1,0,0,0-1.36.4l-1.48,2.75A1.41,1.41,0,0,1,11,14.6V12h1a1,1,0,0,0,0-2H11V9A3,3,0,0,0,8,6,1,1,0,0,0,8,8,1,1,0,0,1,9,9v1H8a1,1,0,0,0,0,2H9v2.6a3.4,3.4,0,0,0,6.39,1.62l1.49-2.74A1,1,0,0,0,16.48,12.12Z" style="fill: rgb(44, 169, 188);"></path></svg>